<svg width="915" height="213" viewBox="0 0 915 213" fill="none" xmlns="http://www.w3.org/2000/svg">
<path d="M78.1746 212.667C63.6336 212.667 50.5067 210.187 38.7938 205.253C27.081 200.319 17.8227 193.011 11.0458 183.33C4.26892 173.649 0.586977 161.728 0 147.593H46.5046C46.6913 153.22 48.1054 158.154 50.7201 162.421C53.3348 166.688 56.9634 170.022 61.6059 172.449C66.2483 174.876 71.6912 176.076 77.8811 176.076C83.2973 176.076 87.9931 175.249 91.9686 173.596C95.944 171.942 99.0923 169.515 101.414 166.342C103.735 163.141 104.909 159.114 104.909 154.287C104.909 149.46 103.601 144.953 100.987 141.352C98.3719 137.778 94.69 134.658 89.9408 132.044C85.1917 129.431 79.7221 127.004 73.5055 124.79C67.2889 122.577 60.8054 120.39 54.0285 118.256C37.94 113.029 25.5868 105.961 16.969 97.0538C8.35108 88.1461 4.02879 76.2247 4.02879 61.3164C4.02879 48.9149 7.0704 38.3271 13.1803 29.4994C19.2902 20.6984 27.6679 13.9509 38.3136 9.31041C48.9592 4.66988 60.9922 2.34961 74.3593 2.34961C88.5001 2.34961 100.853 4.72321 111.419 9.47042C121.984 14.2176 130.416 21.0984 136.712 30.0861C143.009 39.1005 146.344 49.795 146.744 62.1965H99.6526C99.6526 57.9293 98.4787 54.0622 96.1575 50.5685C93.8362 47.0747 90.7679 44.2744 87.006 42.1408C83.2173 40.0073 78.9217 39.0471 74.0658 38.9405C69.6101 38.8338 65.5279 39.3672 61.846 40.834C58.1641 42.2742 55.2558 44.5144 53.1214 47.5014C50.9869 50.5151 49.9197 54.2222 49.9197 58.6761C49.9197 63.1299 51.0403 66.677 53.2548 69.8507C55.4693 73.051 58.5909 75.7713 62.5664 77.9849C66.5418 80.1985 71.1843 82.3054 76.5204 84.2256C81.8566 86.1725 87.6196 88.0928 93.8095 90.0396C104.268 93.5334 113.82 97.6405 122.438 102.388C131.056 107.135 137.993 113.322 143.222 120.977C148.452 128.631 151.066 138.739 151.066 151.327C151.066 162.368 148.265 172.529 142.635 181.837C137.006 191.145 128.788 198.585 117.929 204.213C107.07 209.84 93.8095 212.64 78.1213 212.64L78.1746 212.667Z" fill="white"/>
<path d="M195.891 0H152.295V209.171H195.891V0Z" fill="white"/>
<path d="M262.432 179.539C266.888 179.539 270.863 178.765 274.358 177.219C277.854 175.672 280.895 173.538 283.51 170.818C286.125 168.098 288.259 164.951 289.913 161.377C291.567 157.803 292.768 153.776 293.542 149.322H265.34C260.484 149.322 256.429 149.962 253.12 151.216C249.812 152.469 247.464 154.309 245.997 156.736C244.556 159.163 243.809 161.83 243.809 164.737C243.809 168.044 244.636 170.738 246.29 172.871C247.944 175.005 250.159 176.659 252.96 177.805C255.762 178.979 258.91 179.539 262.405 179.539H262.432ZM251.386 212.663C239.38 212.663 229.348 210.662 221.317 206.715C213.286 202.742 207.363 197.461 203.574 190.874C199.786 184.286 197.918 176.925 197.918 168.791C197.918 160.657 200.106 152.576 204.455 145.695C208.804 138.814 215.581 133.454 224.785 129.56C233.99 125.693 245.863 123.746 260.378 123.746H295.543C295.543 117.158 294.716 111.691 293.062 107.344C291.407 102.997 288.739 99.7431 285.057 97.6095C281.375 95.476 276.333 94.4092 269.956 94.4092C263.179 94.4092 257.469 95.8227 252.8 98.623C248.158 101.423 245.25 105.744 244.076 111.558H202.214C203.174 101.103 206.563 92.0089 212.379 84.248C218.195 76.5138 226.093 70.4064 236.071 65.9526C246.05 61.4987 257.443 59.2852 270.223 59.2852C284.177 59.2852 296.29 61.5254 306.562 65.9526C316.834 70.4064 324.812 77.0472 330.548 85.8482C336.258 94.6759 339.113 105.557 339.113 118.519V209.169H302.773L297.544 187.967C295.409 191.647 292.901 194.981 289.993 197.994C287.085 201.008 283.697 203.622 279.828 205.835C275.959 208.076 271.69 209.756 267.048 210.929C262.405 212.103 257.176 212.663 251.36 212.663H251.386Z" fill="white"/>
<path d="M405.149 212.667C391.195 212.667 379.242 210.426 369.263 205.972C359.284 201.519 351.44 195.571 345.731 188.104C340.021 180.663 336.766 172.182 335.992 162.687H379.295C380.069 165.781 381.483 168.635 383.511 171.248C385.538 173.862 388.313 175.942 391.782 177.489C395.277 179.036 399.439 179.809 404.268 179.809C409.098 179.809 412.779 179.169 415.901 177.916C418.996 176.662 421.291 174.956 422.731 172.822C424.172 170.688 424.919 168.475 424.919 166.128C424.919 162.447 423.799 159.7 421.584 157.86C419.343 156.02 416.115 154.42 411.846 153.06C407.577 151.7 402.401 150.606 396.451 149.273C389.434 147.726 382.55 145.699 375.667 143.752C368.783 141.805 362.646 139.245 357.203 136.044C351.787 132.844 347.518 128.87 344.423 124.123C341.328 119.376 339.781 113.242 339.781 105.668C339.781 96.9466 342.155 89.1057 346.905 82.1449C351.654 75.1841 358.617 69.6102 367.822 65.4497C377.027 61.2892 388.126 59.209 401.093 59.209C419.316 59.209 433.697 63.2628 444.263 71.4237C454.828 79.558 461.072 90.4926 463.019 104.254H422.331C421.157 100.387 418.783 97.3733 415.207 95.2398C411.632 93.1062 406.83 92.0394 400.826 92.0394C394.823 92.0394 389.887 93.1595 386.579 95.3731C383.271 97.6134 381.643 100.36 381.643 103.641C381.643 105.961 382.764 108.095 384.978 110.041C387.193 111.988 390.448 113.669 394.717 115.135C398.985 116.576 404.108 117.882 410.111 119.056C421.931 121.376 432.15 124.043 440.768 127.057C449.385 130.07 456.162 134.364 461.098 139.992C466.034 145.619 468.516 153.54 468.516 163.808C468.516 173.302 465.954 181.676 460.805 188.93C455.682 196.185 448.318 201.972 438.713 206.212C429.135 210.48 417.929 212.613 405.149 212.613V212.667Z" fill="white"/>
<path d="M469.367 209.171V0H512.964V83.3695C517.606 76.4087 523.903 70.6481 531.854 66.0876C539.804 61.527 549.089 59.2601 559.762 59.2601C572.168 59.2601 582.52 61.8737 590.871 67.101C599.196 72.3283 605.439 79.8758 609.628 89.7703C613.79 99.6381 615.871 111.746 615.871 126.094V209.171H572.568V129.855C572.568 119 570.354 110.626 565.898 104.732C561.442 98.838 554.185 95.8776 544.1 95.8776C538.097 95.8776 532.707 97.3711 527.958 100.385C523.209 103.398 519.527 107.506 516.912 112.733C514.298 117.96 512.99 124.254 512.99 131.615V209.171H469.394H469.367Z" fill="white"/>
<path d="M691.112 174.898C696.742 174.898 701.811 173.458 706.374 170.551C710.936 167.644 714.565 163.297 717.259 157.483C719.981 151.669 721.342 144.495 721.342 135.987C721.342 127.48 719.981 120.305 717.259 114.491C714.538 108.677 710.909 104.33 706.374 101.423C701.811 98.5163 696.742 97.0761 691.112 97.0761C685.483 97.0761 680.12 98.5163 675.558 101.423C670.995 104.33 667.42 108.677 664.805 114.491C662.19 120.305 660.883 127.48 660.883 135.987C660.883 144.495 662.19 151.669 664.805 157.483C667.42 163.297 670.995 167.644 675.558 170.551C680.12 173.458 685.296 174.898 691.112 174.898ZM691.112 212.663C676.972 212.663 664.218 209.356 652.879 202.795C641.54 196.207 632.628 187.166 626.145 175.618C619.661 164.097 616.406 150.976 616.406 136.254C616.406 121.532 619.661 107.771 626.145 96.1694C632.628 84.5414 641.54 75.5003 652.879 69.0196C664.218 62.5389 676.945 59.2852 691.112 59.2852C705.28 59.2852 718.193 62.5389 729.319 69.0196C740.445 75.5003 749.33 84.5147 755.92 96.036C762.51 107.557 765.792 120.866 765.792 135.987C765.792 151.109 762.483 164.124 755.92 175.645C749.33 187.166 740.472 196.234 729.319 202.822C718.167 209.409 705.44 212.689 691.112 212.689V212.663Z" fill="white"/>
<path d="M767.846 209.172V62.7555H805.919L809.121 85.9848C813.39 78.0372 819.633 71.6098 827.877 66.6759C836.095 61.742 846.047 59.2617 857.68 59.2617C869.9 59.2617 880.145 61.8754 888.496 67.1026C896.82 72.3299 903.17 79.8507 907.519 89.6119C911.868 99.3997 914.056 111.454 914.056 125.776V209.146H870.46V129.536C870.46 118.682 868.219 110.361 863.79 104.547C859.334 98.7329 852.264 95.8259 842.578 95.8259C836.362 95.8259 830.946 97.2394 826.303 100.04C821.661 102.84 818.032 106.814 815.417 111.961C812.803 117.082 811.495 123.429 811.495 130.977V209.119H767.899L767.846 209.172Z" fill="white"/>
</svg>
