<svg width="1344" height="738" viewBox="0 0 1344 738" fill="none" xmlns="http://www.w3.org/2000/svg">
<g clip-path="url(#clip0_2841_16029)">
<path d="M1517.39 365.968C2073.84 440.203 2465.99 846.653 2545.86 1330.23C2637.49 1884.89 2359.94 2364.78 1897.53 2587.23C1416.68 2818.62 863.981 2709.37 510.829 2345.04C132.031 1954.12 87.4199 1383.94 338.794 947.739C326.773 946.423 318.759 953.53 310.478 957.479C151.265 1035.66 -7.146 1116.22 -167.427 1192.56C-560.65 1380.25 -948.797 1578.74 -1341.49 1767.75C-1733.37 1956.23 -2121.52 2151.56 -2512.34 2341.88C-2585.8 2377.68 -2660.33 2411.64 -2733.53 2448.23C-2756.5 2459.82 -2766.92 2455.34 -2777.87 2433.75C-2923.19 2146.03 -3068.78 1858.3 -3215.44 1571.1C-3227.19 1548.2 -3222.38 1539.25 -3200.75 1528.46C-2974.48 1417.63 -2749.55 1304.17 -2522.22 1195.45C-2244.94 1063.04 -1970.59 925.1 -1694.91 790.055C-1189.75 542.869 -686.203 293.05 -180.25 47.9688C208.966 -140.514 595.244 -335.578 984.994 -523.272C1379.55 -713.071 1770.1 -911.558 2164.66 -1101.36C2552.54 -1288 2936.42 -1483.06 3324.29 -1669.44C3567.65 -1786.32 3808.88 -1907.15 4051.44 -2025.87C4080.29 -2039.82 4093.38 -2036.14 4107.8 -2007.44C4219.73 -1784.21 4333.26 -1561.77 4445.99 -1339.07C4477.25 -1276.94 4506.63 -1214.03 4538.42 -1152.43C4550.44 -1129.26 4546.44 -1116.63 4522.66 -1105.31C4136.12 -922.877 3756.25 -727.55 3371.31 -542.225C2975.68 -351.9 2584.33 -153.15 2188.7 37.1758C1972.32 141.421 1757.55 249.088 1541.44 353.859C1533.96 357.544 1526.74 361.23 1516.86 365.968H1517.39Z" fill="#EEEEEE"/>
<g clip-path="url(#clip1_2841_16029)">
<path d="M672 318.75C685.526 318.75 698.498 324.048 708.062 333.478C717.627 342.908 723 355.698 723 369.035C723 382.371 717.627 395.161 708.062 404.591C698.498 414.021 685.526 419.319 672 419.319C658.474 419.319 645.502 414.021 635.938 404.591C626.373 395.161 621 382.371 621 369.035C621 355.698 626.373 342.908 635.938 333.478C645.502 324.048 658.474 318.75 672 318.75ZM630.562 369.035C630.562 379.87 634.928 390.262 642.699 397.924C650.47 405.586 661.01 409.891 672 409.891C682.99 409.891 693.53 405.586 701.301 397.924C709.072 390.262 713.438 379.87 713.438 369.035C713.438 358.199 709.072 347.807 701.301 340.145C693.53 332.483 682.99 328.178 672 328.178C661.01 328.178 650.47 332.483 642.699 340.145C634.928 347.807 630.562 358.199 630.562 369.035ZM661.666 351.605L688.849 367.689C689.084 367.829 689.278 368.027 689.413 368.262C689.548 368.498 689.619 368.764 689.619 369.035C689.619 369.305 689.548 369.571 689.413 369.807C689.278 370.042 689.084 370.24 688.849 370.38L661.666 386.464C661.424 386.608 661.148 386.686 660.866 386.69C660.584 386.694 660.306 386.624 660.06 386.487C659.814 386.35 659.61 386.151 659.468 385.911C659.325 385.671 659.25 385.398 659.25 385.119V352.956C659.249 352.677 659.323 352.403 659.465 352.162C659.607 351.921 659.811 351.721 660.057 351.584C660.303 351.446 660.582 351.376 660.865 351.379C661.147 351.383 661.424 351.461 661.666 351.605Z" fill="#D9D9D9"/>
</g>
</g>
<rect x="0.375" y="0.375" width="1343.25" height="737.25" rx="47.625" stroke="#262626" stroke-opacity="0.48" stroke-width="0.75"/>
<defs>
<clipPath id="clip0_2841_16029">
<rect width="1344" height="738" rx="48" fill="white"/>
</clipPath>
<clipPath id="clip1_2841_16029">
<rect width="102" height="100.569" fill="white" transform="translate(621 318.75)"/>
</clipPath>
</defs>
</svg>
