<svg width="131" height="41" viewBox="0 0 131 41" fill="none" xmlns="http://www.w3.org/2000/svg">
<g clip-path="url(#clip0_2878_40)">
<path d="M3.34373 30.9289C4.31726 30.9289 5.29079 30.9385 6.26431 30.9226C6.57407 30.9194 6.72263 30.9991 6.81429 31.3338C7.40536 33.5113 9.02685 34.7929 11.2647 34.997C12.371 35.099 13.4267 34.9842 14.4476 34.5921C15.5318 34.1744 16.2777 33.4029 16.4263 32.2074C16.5812 30.9512 16.0154 30.0458 14.6689 29.5262C13.5942 29.1117 12.4437 29.0097 11.3279 28.7578C9.47569 28.3402 7.57605 28.1393 5.77439 27.5208C4.53535 27.0968 3.3785 26.5006 2.45871 25.5346C1.37455 24.3901 0.834054 23.0001 0.66021 21.4347C0.521135 20.1786 0.574869 18.948 0.954165 17.7429C1.60213 15.677 2.96127 14.1913 4.77558 13.1042C6.23587 12.2306 7.82891 11.7492 9.51362 11.5579C10.2027 11.4814 10.8917 11.3953 11.5808 11.4176C13.787 11.4942 15.9395 11.8194 17.9056 12.932C19.3089 13.7258 20.4374 14.8002 21.2339 16.2221C21.4014 16.5186 21.3477 16.6876 21.0885 16.8693C20.0075 17.6122 18.9296 18.3646 17.8518 19.1138C17.2607 19.525 16.6697 19.9331 16.0849 20.3508C15.8573 20.5134 15.7467 20.5452 15.6677 20.1945C15.1967 18.1318 13.5247 16.9458 11.5523 16.9682C10.5219 16.9809 9.51678 17.0351 8.58434 17.5516C7.52231 18.1414 7.04819 19.3337 7.45594 20.4336C7.66771 21.0011 8.11654 21.3104 8.65388 21.5176C9.56735 21.8715 10.5377 21.9608 11.4828 22.1584C12.8609 22.4454 14.2422 22.7132 15.6298 22.9554C16.9036 23.1786 18.1394 23.5038 19.2868 24.1127C21.3856 25.2286 22.6468 26.9597 23.0292 29.3349C23.3611 31.3753 23.124 33.3328 22.1821 35.1787C21.3888 36.7345 20.1971 37.9141 18.7116 38.8004C17.226 39.6867 15.6203 40.184 13.9103 40.3945C13.0063 40.506 12.1023 40.573 11.1952 40.5284C8.76135 40.4072 6.42235 39.9003 4.36151 38.5135C2.0478 36.9577 0.644406 34.7674 0.138678 32.0033C0.0975874 31.7802 0.10707 31.541 0.0375321 31.3274C-0.0794176 30.964 0.088105 30.9098 0.38522 30.913C1.37139 30.9194 2.35756 30.913 3.34373 30.913V30.9289Z" fill="#140E2D"/>
<path d="M78.4771 21.5181C79.0524 20.4787 79.8078 19.6498 80.873 19.1525C82.1658 18.5499 83.5281 18.4352 84.9346 18.5978C86.0536 18.7253 87.0966 19.0282 88.048 19.653C89.2618 20.4469 90.0267 21.5755 90.5419 22.9081C90.9244 23.8964 91.0887 24.9357 91.2151 25.9814C91.2468 26.2524 91.1014 26.4724 91.016 26.7083C90.4313 28.2673 90.2195 29.8869 90.3238 31.5351C90.3997 32.7147 90.6462 33.8688 91.1172 34.9656C91.193 35.1409 91.2246 35.3258 91.2215 35.5235C91.2151 36.8752 91.212 38.227 91.2246 39.5788C91.2278 39.9008 91.1424 40.0283 90.8011 40.0251C88.8414 40.0123 86.8817 40.0092 84.922 40.0251C84.5522 40.0283 84.4858 39.8784 84.4858 39.5533C84.4921 35.6765 84.4984 31.7998 84.4858 27.9262C84.4826 26.9984 84.2645 26.1185 83.683 25.3566C83.2815 24.8337 82.741 24.5372 82.1215 24.448C81.2428 24.3236 80.3894 24.4129 79.6498 25.0027C78.9449 25.5638 78.6889 26.3417 78.553 27.1834C78.4076 28.0697 78.4803 28.9623 78.4771 29.8518C78.4708 33.0782 78.4676 36.3046 78.4834 39.5277C78.4834 39.9135 78.376 40.0283 77.9903 40.0251C76.0686 40.006 74.1468 40.006 72.225 40.0251C71.8331 40.0283 71.7383 39.9039 71.7383 39.5246C71.7478 30.1132 71.7478 20.7051 71.7383 11.2938C71.7383 10.8985 71.8615 10.7996 72.2377 10.8028C74.1468 10.8187 76.0559 10.8092 77.9651 10.8124C78.474 10.8124 78.4771 10.8124 78.4771 11.348C78.4771 14.6126 78.4771 17.8772 78.4771 21.1387V21.5181Z" fill="#140E2D"/>
<path d="M45.5038 37.5618C45.0265 38.2568 44.4671 38.8466 43.7654 39.2961C42.7697 39.9337 41.6824 40.2748 40.5066 40.4056C38.9957 40.5713 37.5449 40.3896 36.1447 39.803C34.2324 39.0028 33.0724 37.549 32.6235 35.5341C32.3296 34.227 32.3612 32.9039 32.7784 31.6223C33.3189 29.9677 34.5042 28.922 36.0593 28.2588C37.428 27.6754 38.8661 27.398 40.3391 27.2514C41.7899 27.1079 43.2407 26.9772 44.6946 26.8752C45.2509 26.8369 45.2573 26.8082 45.2794 26.2407C45.3173 25.2652 45.0297 24.4395 44.1668 23.9389C42.8456 23.1706 40.0198 23.4256 39.5678 25.6286C39.5109 25.8996 39.3371 25.855 39.1696 25.855C37.6524 25.8582 36.1352 25.855 34.618 25.855C34.2261 25.855 33.8341 25.8518 33.4422 25.855C33.2209 25.855 33.1198 25.788 33.1609 25.5362C33.4643 23.7476 34.2387 22.2046 35.5568 20.9772C36.8337 19.7848 38.373 19.0962 40.0799 18.7582C41.2146 18.5351 42.3588 18.4713 43.503 18.5446C45.2984 18.6594 47.04 19.0197 48.6046 19.9984C50.3493 21.0887 51.3924 22.6669 51.8381 24.669C51.9677 25.2556 51.9993 25.8486 51.9961 26.448C51.9898 30.7838 51.9929 35.1165 51.9929 39.4523C51.9929 39.8243 51.8043 40.0102 51.4272 40.0102C49.6065 40.0102 47.7859 40.0007 45.9653 40.0166C45.6113 40.0166 45.469 39.9273 45.4848 39.548C45.5133 38.8848 45.4912 38.2217 45.4912 37.5586L45.5038 37.5618ZM45.2762 31.9666C45.2762 31.1823 45.2762 31.1568 44.4987 31.2174C43.3703 31.3035 42.2387 31.3736 41.1324 31.6063C40.4623 31.7466 39.7954 31.9634 39.3624 32.5437C38.6733 33.465 39.0558 34.9347 40.102 35.4927C40.8574 35.8944 41.6634 35.9581 42.4852 35.8083C43.3387 35.6553 44.0941 35.3173 44.6156 34.5649C45.1435 33.7998 45.3015 32.9422 45.2794 31.9666H45.2762Z" fill="#140E2D"/>
<path d="M116.708 21.6763C117.325 20.5285 118.169 19.655 119.332 19.1035C120.012 18.7815 120.742 18.6093 121.478 18.5519C123.22 18.4212 124.92 18.6157 126.422 19.5976C127.951 20.5987 128.846 22.0716 129.292 23.841C129.563 24.9154 129.684 26.0089 129.684 27.1184C129.68 31.2374 129.684 35.3565 129.684 39.4755C129.684 40.0079 129.684 40.0079 129.168 40.0079C127.259 40.0079 125.35 39.9984 123.441 40.0175C123.062 40.0207 122.945 39.9123 122.948 39.5233C122.961 35.7614 122.964 31.9994 122.948 28.2374C122.948 27.5679 122.869 26.8984 122.635 26.2544C122.047 24.6348 120.552 24.096 119.01 24.5296C117.758 24.8803 117.249 25.8272 117.015 27.0068C116.936 27.4085 116.936 27.8134 116.936 28.2215C116.936 31.9707 116.936 35.7199 116.936 39.4691C116.936 40.0079 116.936 40.0079 116.389 40.0079C114.493 40.0079 112.596 39.9984 110.7 40.0143C110.327 40.0175 110.185 39.925 110.2 39.5265C110.229 38.7231 110.223 37.9197 110.2 37.1163C110.191 36.7688 110.273 36.4723 110.453 36.1822C111.142 35.0632 111.506 33.823 111.711 32.5382C111.822 31.8655 111.904 31.18 111.872 30.4914C111.79 28.5467 111.354 26.6975 110.346 25.0174C110.241 24.8453 110.207 24.6699 110.207 24.4754C110.207 22.7921 110.216 21.1088 110.204 19.4255C110.204 19.1003 110.289 18.9791 110.63 18.9823C112.514 18.9951 114.398 18.9951 116.282 18.9823C116.611 18.9823 116.727 19.0779 116.718 19.4191C116.696 20.1715 116.712 20.9239 116.712 21.6763H116.708Z" fill="#140E2D"/>
<path d="M55.362 33.0721C56.2723 33.0721 57.1826 33.0817 58.0929 33.0658C58.3426 33.0626 58.4564 33.1646 58.5165 33.391C58.9021 34.9181 60.0273 35.5493 61.358 35.7374C62.3316 35.8745 63.2861 35.7884 64.1838 35.3261C64.8729 34.9691 65.2237 34.3793 65.151 33.6683C65.0941 33.1008 64.5915 32.6162 63.8646 32.4313C62.6192 32.1157 61.3454 31.9691 60.0842 31.7459C58.526 31.4717 56.9361 31.3059 55.4979 30.5727C53.7563 29.6832 52.8017 28.2645 52.6216 26.2719C52.5173 25.1274 52.6247 24.0466 53.0514 22.9913C53.5856 21.6651 54.5307 20.7054 55.7192 19.9754C57.1004 19.1241 58.6239 18.7416 60.2233 18.5949C62.1419 18.4196 64.0194 18.5598 65.8464 19.2006C67.5785 19.8096 68.9376 20.884 69.8258 22.5163C70.2462 23.291 70.4643 24.1422 70.5907 25.0126C70.635 25.3155 70.5591 25.4781 70.1925 25.4749C68.4351 25.4589 66.6777 25.4621 64.9203 25.4749C64.6516 25.4749 64.5441 25.3665 64.4778 25.1242C64.1933 24.0721 63.2988 23.3771 62.2083 23.2368C61.3865 23.1316 60.5994 23.2049 59.8345 23.4887C59.2814 23.6927 58.8452 24.037 58.7251 24.6746C58.6619 25.0253 58.8168 25.4653 59.1044 25.6789C59.6923 26.1125 60.4003 26.138 61.0767 26.2528C62.3158 26.46 63.558 26.6449 64.8002 26.8266C65.8116 26.9765 66.8041 27.1741 67.7555 27.5663C69.3296 28.2135 70.5528 29.2528 71.0175 30.9361C71.7697 33.6651 71.2798 36.1359 69.1463 38.1062C67.8598 39.2922 66.2826 39.9202 64.5789 40.2358C63.5105 40.4335 62.4296 40.526 61.3454 40.4622C59.3383 40.3411 57.3976 39.9457 55.6812 38.8171C54.1514 37.8129 53.0767 36.442 52.5615 34.6566C52.4446 34.2549 52.3719 33.8437 52.2897 33.4324C52.2296 33.1359 52.3371 33.069 52.5931 33.069C53.5161 33.0753 54.439 33.069 55.362 33.069V33.0721Z" fill="#140E2D"/>
<path d="M27.0515 40.0122C26.0526 40.0122 25.0538 40.0058 24.055 40.0122C23.7516 40.0122 23.6473 39.958 23.701 39.5946C23.8274 38.7178 23.8717 37.8283 23.9602 36.9452C24.0455 36.0749 24.1498 35.2077 24.2383 34.3374C24.3268 33.4798 24.4027 32.6222 24.4912 31.7645C24.5829 30.8559 24.684 29.9505 24.7757 29.0451C24.861 28.213 24.9369 27.3809 25.0222 26.5488C25.1392 25.3883 25.2656 24.231 25.3826 23.0705C25.4679 22.2257 25.5438 21.3808 25.6291 20.536C25.7208 19.6146 25.8251 18.6965 25.9167 17.7783C26.0021 16.9207 26.0748 16.0631 26.1601 15.2055C26.2486 14.3096 26.3529 13.4169 26.4414 12.5243C26.5268 11.6794 26.6058 10.8346 26.6911 9.9897C26.7828 9.06833 26.8839 8.15016 26.9756 7.23198C27.0578 6.41263 27.1368 5.59329 27.219 4.77394C27.3391 3.60071 27.4592 2.43067 27.5856 1.26063C27.6141 1.00877 27.5762 0.756911 27.652 0.501861C27.7057 0.323327 27.7816 0.25 27.9649 0.25C30.0131 0.25 32.0613 0.253188 34.1095 0.25C34.3877 0.25 34.4193 0.412594 34.4003 0.62301C34.3434 1.216 34.2834 1.80899 34.2233 2.40198C34.1317 3.28509 34.04 4.16501 33.9483 5.04812C33.8282 6.18309 33.7081 7.31487 33.5912 8.44984C33.5027 9.3202 33.4268 10.1906 33.3383 11.0609C33.2466 11.9568 33.1455 12.8494 33.0538 13.7421C32.9685 14.587 32.8926 15.4318 32.8073 16.2767C32.7156 17.198 32.6113 18.1162 32.5196 19.0344C32.4343 19.8792 32.3584 20.7241 32.2763 21.5689C32.1846 22.4776 32.0866 23.383 31.995 24.2884C31.9096 25.1333 31.8338 25.9781 31.7453 26.823C31.6283 27.9707 31.5019 29.1152 31.3849 30.2629C31.2964 31.1205 31.2237 31.9782 31.1384 32.8358C31.0467 33.7444 30.9456 34.6498 30.8539 35.5552C30.7686 36.3873 30.6895 37.2194 30.6105 38.0515C30.5568 38.619 30.4967 39.1865 30.4588 39.754C30.4398 40.025 30.2628 40.0058 30.0858 40.0058C29.0744 40.0058 28.0629 40.0058 27.0515 40.0058V40.0122Z" fill="#140E2D"/>
<path d="M101.104 22.2032C103.175 22.1937 105.065 22.7707 106.677 24.1002C108.093 25.2702 109.029 26.7878 109.414 28.5986C109.977 31.2416 109.616 33.7315 107.982 35.9408C106.636 37.7644 104.796 38.7591 102.577 39.1066C100.804 39.384 99.0973 39.1991 97.441 38.5073C95.7848 37.8155 94.5394 36.6582 93.6386 35.1087C92.7062 33.5083 92.409 31.7548 92.5481 29.9344C92.7062 27.8685 93.4679 26.0322 94.9567 24.5752C96.3158 23.2426 97.9626 22.487 99.8591 22.2766C100.276 22.2319 100.687 22.2192 101.104 22.2064V22.2032Z" fill="#140E2D"/>
</g>
<defs>
<clipPath id="clip0_2878_40">
<rect width="130.05" height="40.4211" fill="white" transform="translate(0 0.25)"/>
</clipPath>
</defs>
</svg>
