<svg width="588" height="527" viewBox="0 0 588 527" fill="none" xmlns="http://www.w3.org/2000/svg">
<mask id="path-1-inside-1_2878_1435" fill="white">
<path fill-rule="evenodd" clip-rule="evenodd" d="M300.154 25.0972C293.878 15.9157 290.741 11.325 286.633 8.00422C282.996 5.06411 278.821 2.86076 274.342 1.51734C269.282 0 263.722 0 252.601 0H57.85C37.6881 0 27.6072 0 19.9063 3.92377C13.1325 7.37521 7.62521 12.8825 4.17377 19.6563C0.25 27.3572 0.25 37.4381 0.25 57.6V468.9C0.25 489.062 0.25 499.143 4.17377 506.844C7.62521 513.617 13.1325 519.125 19.9063 522.576C27.6072 526.5 37.6881 526.5 57.85 526.5H529.9C550.062 526.5 560.143 526.5 567.844 522.576C574.617 519.125 580.125 513.617 583.576 506.844C587.5 499.143 587.5 489.062 587.5 468.9V111.6C587.5 91.4381 587.5 81.3572 583.576 73.6563C580.125 66.8825 574.617 61.3752 567.844 57.9238C560.143 54 550.062 54 529.9 54H350.309C339.187 54 333.627 54 328.567 52.4827C324.088 51.1392 319.913 48.9359 316.276 45.9958C312.168 42.675 309.031 38.0843 302.755 28.9028L300.154 25.0972Z"/>
</mask>
<path fill-rule="evenodd" clip-rule="evenodd" d="M300.154 25.0972C293.878 15.9157 290.741 11.325 286.633 8.00422C282.996 5.06411 278.821 2.86076 274.342 1.51734C269.282 0 263.722 0 252.601 0H57.85C37.6881 0 27.6072 0 19.9063 3.92377C13.1325 7.37521 7.62521 12.8825 4.17377 19.6563C0.25 27.3572 0.25 37.4381 0.25 57.6V468.9C0.25 489.062 0.25 499.143 4.17377 506.844C7.62521 513.617 13.1325 519.125 19.9063 522.576C27.6072 526.5 37.6881 526.5 57.85 526.5H529.9C550.062 526.5 560.143 526.5 567.844 522.576C574.617 519.125 580.125 513.617 583.576 506.844C587.5 499.143 587.5 489.062 587.5 468.9V111.6C587.5 91.4381 587.5 81.3572 583.576 73.6563C580.125 66.8825 574.617 61.3752 567.844 57.9238C560.143 54 550.062 54 529.9 54H350.309C339.187 54 333.627 54 328.567 52.4827C324.088 51.1392 319.913 48.9359 316.276 45.9958C312.168 42.675 309.031 38.0843 302.755 28.9028L300.154 25.0972Z" fill="white"/>
<path d="M328.567 52.4827L328.783 51.7643L328.567 52.4827ZM316.276 45.9958L315.805 46.579L316.276 45.9958ZM583.576 73.6563L582.908 73.9968L583.576 73.6563ZM567.844 57.9238L568.184 57.2555L567.844 57.9238ZM567.844 522.576L568.184 523.245L567.844 522.576ZM583.576 506.844L584.245 507.184L583.576 506.844ZM19.9063 522.576L19.5658 523.245L19.9063 522.576ZM274.342 1.51734L274.557 0.798954L274.342 1.51734ZM300.154 25.0972L299.535 25.5204L300.154 25.0972ZM286.633 8.00422L287.104 7.42098L286.633 8.00422ZM19.9063 3.92377L19.5658 3.25551L19.9063 3.92377ZM57.85 0.75H252.601V-0.75H57.85V0.75ZM1 468.9V57.6H-0.5V468.9H1ZM529.9 525.75H57.85V527.25H529.9V525.75ZM586.75 111.6V468.9H588.25V111.6H586.75ZM529.9 53.25H350.309V54.75H529.9V53.25ZM303.374 28.4796L300.773 24.674L299.535 25.5204L302.136 29.326L303.374 28.4796ZM350.309 53.25C339.141 53.25 333.712 53.2425 328.783 51.7643L328.352 53.201C333.542 54.7575 339.233 54.75 350.309 54.75V53.25ZM302.136 29.326C308.386 38.4695 311.591 43.1728 315.805 46.579L316.748 45.4125C312.746 42.1773 309.676 37.6991 303.374 28.4796L302.136 29.326ZM328.783 51.7643C324.397 50.4488 320.309 48.2914 316.748 45.4125L315.805 46.579C319.517 49.5804 323.779 51.8296 328.352 53.201L328.783 51.7643ZM588.25 111.6C588.25 101.531 588.251 93.9349 587.757 87.8942C587.263 81.8447 586.269 77.2896 584.245 73.3158L582.908 73.9968C584.807 77.7239 585.775 82.0596 586.262 88.0163C586.749 93.9818 586.75 101.507 586.75 111.6H588.25ZM529.9 54.75C539.993 54.75 547.518 54.7506 553.484 55.238C559.44 55.7247 563.776 56.693 567.503 58.592L568.184 57.2555C564.21 55.2308 559.655 54.2372 553.606 53.743C547.565 53.2494 539.969 53.25 529.9 53.25V54.75ZM584.245 73.3158C580.721 66.4009 575.099 60.7789 568.184 57.2555L567.503 58.592C574.136 61.9716 579.528 67.3641 582.908 73.9968L584.245 73.3158ZM529.9 527.25C539.969 527.25 547.565 527.251 553.606 526.757C559.655 526.263 564.21 525.269 568.184 523.245L567.503 521.908C563.776 523.807 559.44 524.775 553.484 525.262C547.518 525.749 539.993 525.75 529.9 525.75V527.25ZM586.75 468.9C586.75 478.993 586.749 486.518 586.262 492.484C585.775 498.44 584.807 502.776 582.908 506.503L584.245 507.184C586.269 503.21 587.263 498.655 587.757 492.606C588.251 486.565 588.25 478.969 588.25 468.9H586.75ZM568.184 523.245C575.099 519.721 580.721 514.099 584.245 507.184L582.908 506.503C579.528 513.136 574.136 518.528 567.503 521.908L568.184 523.245ZM-0.5 468.9C-0.5 478.969 -0.500583 486.565 -0.0070385 492.606C0.487222 498.655 1.48078 503.21 3.50551 507.184L4.84202 506.503C2.94299 502.776 1.97466 498.44 1.48798 492.484C1.00058 486.518 1 478.993 1 468.9H-0.5ZM57.85 525.75C47.7567 525.75 40.2318 525.749 34.2663 525.262C28.3096 524.775 23.9739 523.807 20.2468 521.908L19.5658 523.245C23.5396 525.269 28.0947 526.263 34.1442 526.757C40.1849 527.251 47.7814 527.25 57.85 527.25V525.75ZM3.50551 507.184C7.02886 514.099 12.6509 519.721 19.5658 523.245L20.2468 521.908C13.6141 518.528 8.22156 513.136 4.84202 506.503L3.50551 507.184ZM252.601 0.75C263.768 0.75 269.197 0.757455 274.126 2.23573L274.557 0.798954C269.368 -0.757455 263.676 -0.75 252.601 -0.75V0.75ZM300.773 24.674C294.524 15.5305 291.318 10.8272 287.104 7.42098L286.161 8.58747C290.163 11.8227 293.233 16.3009 299.535 25.5204L300.773 24.674ZM274.126 2.23573C278.513 3.55116 282.6 5.70861 286.161 8.58747L287.104 7.42098C283.392 4.41961 279.13 2.17036 274.557 0.798954L274.126 2.23573ZM57.85 -0.75C47.7814 -0.75 40.1849 -0.750583 34.1442 -0.257039C28.0947 0.237222 23.5396 1.23078 19.5658 3.25551L20.2468 4.59202C23.9739 2.69299 28.3097 1.72466 34.2663 1.23798C40.2318 0.750583 47.7567 0.75 57.85 0.75V-0.75ZM1 57.6C1 47.5067 1.00058 39.9818 1.48798 34.0163C1.97466 28.0596 2.94299 23.7239 4.84202 19.9968L3.50551 19.3158C1.48078 23.2896 0.487222 27.8447 -0.0070385 33.8942C-0.500583 39.9349 -0.5 47.5314 -0.5 57.6H1ZM19.5658 3.25551C12.6509 6.77886 7.02886 12.4009 3.50551 19.3158L4.84202 19.9968C8.22156 13.3641 13.6141 7.97156 20.2468 4.59202L19.5658 3.25551Z" fill="#262626" fill-opacity="0.48" mask="url(#path-1-inside-1_2878_1435)"/>
</svg>
