<svg width="38" height="38" viewBox="0 0 38 38" fill="none" xmlns="http://www.w3.org/2000/svg">
<path fill-rule="evenodd" clip-rule="evenodd" d="M0.332032 3.35007C0.332032 2.51545 0.663584 1.71501 1.25375 1.12485C1.84392 0.534681 2.64435 0.203129 3.47898 0.203129H34.8491C35.2627 0.202454 35.6724 0.283366 36.0547 0.441233C36.437 0.5991 36.7844 0.830822 37.077 1.12313C37.3697 1.41544 37.6018 1.7626 37.7601 2.14473C37.9183 2.52686 37.9997 2.93646 37.9995 3.35007V34.7202C37.9999 35.1339 37.9188 35.5436 37.7607 35.9259C37.6027 36.3082 37.3708 36.6556 37.0784 36.9482C36.7859 37.2408 36.4386 37.4729 36.0564 37.6312C35.6742 37.7894 35.2645 37.8708 34.8508 37.8706H3.47898C3.06557 37.8706 2.65621 37.7891 2.2743 37.6309C1.89238 37.4726 1.54539 37.2406 1.25314 36.9482C0.960901 36.6558 0.729135 36.3087 0.571087 35.9267C0.413039 35.5447 0.331807 35.1353 0.332032 34.7219V3.35007ZM15.2415 14.5647H20.342V17.1261C21.0782 15.6536 22.9616 14.3284 25.7918 14.3284C31.2176 14.3284 32.5034 17.2613 32.5034 22.6426V32.6108H27.0126V23.8686C27.0126 20.8038 26.2763 19.0745 24.4067 19.0745C21.8127 19.0745 20.7341 20.9391 20.7341 23.8686V32.6108H15.2415V14.5647ZM5.82463 32.3763H11.3172V14.3284H5.82463V32.3763ZM12.1031 8.44202C12.1135 8.91231 12.0298 9.37992 11.857 9.81742C11.6842 10.2549 11.4257 10.6535 11.0968 10.9898C10.7678 11.326 10.375 11.5932 9.94143 11.7756C9.50784 11.958 9.04218 12.052 8.57178 12.052C8.10139 12.052 7.63573 11.958 7.20214 11.7756C6.76854 11.5932 6.37575 11.326 6.04681 10.9898C5.71787 10.6535 5.45941 10.2549 5.2866 9.81742C5.11379 9.37992 5.03011 8.91231 5.04046 8.44202C5.06079 7.51892 5.44177 6.64048 6.1018 5.99482C6.76184 5.34915 7.64846 4.98761 8.57178 4.98761C9.49511 4.98761 10.3817 5.34915 11.0418 5.99482C11.7018 6.64048 12.0828 7.51892 12.1031 8.44202Z" fill="#3D4DFF"/>
</svg>
