<svg width="15" height="11" viewBox="0 0 15 11" fill="none" xmlns="http://www.w3.org/2000/svg">
<path fill-rule="evenodd" clip-rule="evenodd" d="M8.59186 8.67498C8.4986 8.76188 8.4238 8.86667 8.37192 8.98311C8.32004 9.09954 8.29214 9.22524 8.28989 9.35269C8.28764 9.48014 8.31109 9.60674 8.35883 9.72493C8.40657 9.84313 8.47763 9.9505 8.56776 10.0406C8.6579 10.1308 8.76527 10.2018 8.88346 10.2496C9.00166 10.2973 9.12826 10.3208 9.25571 10.3185C9.38316 10.3163 9.50885 10.2884 9.62529 10.2365C9.74173 10.1846 9.84652 10.1098 9.93342 10.0165L14.048 5.90326L14.7187 5.23248L14.048 4.56169L9.93469 0.448412C9.75574 0.275418 9.51601 0.179628 9.26713 0.181672C9.01825 0.183717 8.78012 0.283433 8.60405 0.459344C8.42797 0.635254 8.32803 0.873284 8.32575 1.12217C8.32347 1.37105 8.41903 1.61087 8.59186 1.78998L11.0851 4.28326L0.949219 4.28326C0.69747 4.28326 0.456033 4.38326 0.27802 4.56128C0.100007 4.73929 -2.09775e-07 4.98073 -2.20779e-07 5.23247C-2.31783e-07 5.48422 0.100007 5.72566 0.27802 5.90367C0.456033 6.08169 0.69747 6.18169 0.949218 6.18169L11.0851 6.18169L8.59186 8.67498Z" fill="#C7F903"/>
</svg>
