<svg width="19" height="14" viewBox="0 0 19 14" fill="none" xmlns="http://www.w3.org/2000/svg">
<path fill-rule="evenodd" clip-rule="evenodd" d="M10.7398 11.2807C10.6232 11.3894 10.5297 11.5203 10.4649 11.6659C10.4 11.8114 10.3652 11.9686 10.3624 12.1279C10.3596 12.2872 10.3889 12.4454 10.4485 12.5932C10.5082 12.7409 10.597 12.8751 10.7097 12.9878C10.8224 13.1005 10.9566 13.1893 11.1043 13.249C11.2521 13.3086 11.4103 13.338 11.5696 13.3351C11.729 13.3323 11.8861 13.2975 12.0316 13.2326C12.1772 13.1678 12.3082 13.0743 12.4168 12.9577L17.56 7.81608L18.3984 6.97761L17.56 6.13913L12.4184 0.997527C12.1947 0.781284 11.895 0.661547 11.5839 0.664102C11.2728 0.666658 10.9752 0.791303 10.7551 1.01119C10.535 1.23108 10.41 1.52862 10.4072 1.83972C10.4043 2.15082 10.5238 2.4506 10.7398 2.67448L13.8564 5.79108L1.18652 5.79108C0.871837 5.79108 0.570041 5.91609 0.347524 6.13861C0.125007 6.36112 -2.62218e-07 6.66292 -2.75974e-07 6.9776C-2.89729e-07 7.29229 0.125007 7.59409 0.347524 7.8166C0.570041 8.03912 0.871837 8.16413 1.18652 8.16413L13.8564 8.16413L10.7398 11.2807Z" fill="#3D4DFF"/>
</svg>
