<svg width="8" height="7" viewBox="0 0 8 7" fill="none" xmlns="http://www.w3.org/2000/svg">
<path d="M3.79638 0.0918431C4.6098 0.0880589 5.35244 0.31637 5.98579 0.842369C6.54215 1.3053 6.90974 1.90572 7.06125 2.62219C7.2823 3.66788 7.14073 4.65302 6.49869 5.52716C5.96965 6.24868 5.24688 6.64223 4.37509 6.77972C3.6784 6.88946 3.00779 6.8163 2.35705 6.54258C1.70632 6.26886 1.21702 5.81098 0.863087 5.19794C0.496736 4.56472 0.379998 3.87096 0.434641 3.15071C0.496734 2.33333 0.796028 1.60677 1.38095 1.03032C1.91495 0.503055 2.56196 0.204106 3.30708 0.120855C3.47101 0.103195 3.63245 0.0981494 3.79638 0.0931038V0.0918431Z" fill="#140E2D"/>
</svg>
